<svg width="31" height="24" viewBox="0 0 31 24" fill="#0E78F2" xmlns="http://www.w3.org/2000/svg">
<path d="M23.75 10.5C23.75 10.7472 23.6767 10.9889 23.5393 11.1945C23.402 11.4 23.2068 11.5602 22.9784 11.6548C22.7499 11.7495 22.4986 11.7742 22.2561 11.726C22.0137 11.6778 21.7909 11.5587 21.6161 11.3839C21.4413 11.2091 21.3223 10.9863 21.274 10.7439C21.2258 10.5014 21.2505 10.2501 21.3451 10.0216C21.4398 9.79324 21.6 9.59801 21.8055 9.46066C22.0111 9.32331 22.2528 9.25 22.5 9.25C22.8315 9.25 23.1495 9.3817 23.3839 9.61612C23.6183 9.85054 23.75 10.1685 23.75 10.5ZM19 4.25H14C13.8011 4.25 13.6103 4.32902 13.4697 4.46967C13.329 4.61032 13.25 4.80109 13.25 5C13.25 5.19891 13.329 5.38968 13.4697 5.53033C13.6103 5.67098 13.8011 5.75 14 5.75H19C19.1989 5.75 19.3897 5.67098 19.5303 5.53033C19.671 5.38968 19.75 5.19891 19.75 5C19.75 4.80109 19.671 4.61032 19.5303 4.46967C19.3897 4.32902 19.1989 4.25 19 4.25ZM30.75 10V14C30.75 14.7293 30.4603 15.4288 29.9445 15.9445C29.4288 16.4603 28.7293 16.75 28 16.75H27.5287L25.4438 22.5888C25.3223 22.9287 25.0986 23.2228 24.8035 23.4307C24.5083 23.6386 24.156 23.7502 23.795 23.75H22.205C21.844 23.7502 21.4917 23.6386 21.1965 23.4307C20.9014 23.2228 20.6777 22.9287 20.5562 22.5888L20.2575 21.75H12.7425L12.4438 22.5888C12.3223 22.9287 12.0986 23.2228 11.8035 23.4307C11.5083 23.6386 11.156 23.7502 10.795 23.75H9.205C8.84396 23.7502 8.49171 23.6386 8.19654 23.4307C7.90136 23.2228 7.67771 22.9287 7.55625 22.5888L5.97 18.1475C4.41439 16.4029 3.47192 14.1975 3.28625 11.8675C2.839 12.0171 2.45006 12.3035 2.17439 12.6861C1.89873 13.0688 1.75027 13.5284 1.75 14C1.75 14.1989 1.67098 14.3897 1.53033 14.5303C1.38968 14.671 1.19891 14.75 1 14.75C0.801088 14.75 0.610322 14.671 0.46967 14.5303C0.329018 14.3897 0.25 14.1989 0.25 14C0.250059 13.1315 0.551555 12.29 1.10302 11.6191C1.65448 10.9482 2.42172 10.4894 3.27375 10.3212C3.44924 7.59458 4.65523 5.03673 6.64712 3.16647C8.63902 1.29621 11.2677 0.253562 14 0.25H27C27.1989 0.25 27.3897 0.329018 27.5303 0.46967C27.671 0.610322 27.75 0.801088 27.75 1C27.75 1.19891 27.671 1.38968 27.5303 1.53033C27.3897 1.67098 27.1989 1.75 27 1.75H23.4775C25.4298 2.90441 26.9666 4.64725 27.8675 6.72875C27.9425 6.90125 28.0125 7.075 28.0775 7.25125C28.7931 7.27143 29.4727 7.56987 29.9717 8.08315C30.4707 8.59644 30.75 9.2841 30.75 10ZM29.25 10C29.25 9.66848 29.1183 9.35054 28.8839 9.11612C28.6495 8.8817 28.3315 8.75 28 8.75H27.5425C27.3828 8.75017 27.2272 8.69934 27.0983 8.60491C26.9695 8.51047 26.8742 8.37738 26.8263 8.225C26.7308 7.91963 26.6189 7.61961 26.4912 7.32625C25.7743 5.66966 24.5884 4.25901 23.0796 3.26817C21.5708 2.27733 19.8051 1.74959 18 1.75H14C12.2047 1.74982 10.4482 2.27208 8.94461 3.25308C7.44105 4.23408 6.25546 5.63142 5.53243 7.27467C4.8094 8.91792 4.58018 10.7361 4.87273 12.5074C5.16529 14.2786 5.96697 15.9265 7.18 17.25C7.24728 17.3221 7.29917 17.4072 7.3325 17.5L8.96875 22.08C8.98545 22.1295 9.01722 22.1724 9.05958 22.2029C9.10195 22.2334 9.1528 22.2499 9.205 22.25H10.795C10.8467 22.2501 10.8973 22.2342 10.9396 22.2045C10.9819 22.1747 11.0139 22.1325 11.0312 22.0837L11.5075 20.75C11.5591 20.6039 11.6548 20.4774 11.7812 20.3879C11.9077 20.2983 12.0588 20.2502 12.2137 20.25H20.7862C20.9412 20.2502 21.0923 20.2983 21.2188 20.3879C21.3452 20.4774 21.4409 20.6039 21.4925 20.75L21.9688 22.0863C21.9861 22.135 22.0181 22.1772 22.0604 22.207C22.1027 22.2367 22.1533 22.2526 22.205 22.2525H23.795C23.8467 22.2526 23.8973 22.2367 23.9396 22.207C23.9819 22.1772 24.0139 22.135 24.0312 22.0863L26.2938 15.75C26.3454 15.6039 26.441 15.4774 26.5675 15.3879C26.694 15.2983 26.8451 15.2502 27 15.25H28C28.3315 15.25 28.6495 15.1183 28.8839 14.8839C29.1183 14.6495 29.25 14.3315 29.25 14V10Z" />
</svg>
