<svg width="32" height="32" viewBox="0 0 32 32" fill="#0E78F2" xmlns="http://www.w3.org/2000/svg">
<path d="M18.7501 27.9999C18.7501 28.1988 18.6711 28.3896 18.5304 28.5303C18.3898 28.6709 18.199 28.7499 18.0001 28.7499H14.0001C13.8012 28.7499 13.6104 28.6709 13.4698 28.5303C13.3291 28.3896 13.2501 28.1988 13.2501 27.9999C13.2501 27.801 13.3291 27.6103 13.4698 27.4696C13.6104 27.329 13.8012 27.2499 14.0001 27.2499H18.0001C18.199 27.2499 18.3898 27.329 18.5304 27.4696C18.6711 27.6103 18.7501 27.801 18.7501 27.9999ZM16.0001 13.7499C16.2473 13.7499 16.489 13.6766 16.6946 13.5393C16.9001 13.4019 17.0603 13.2067 17.1549 12.9783C17.2496 12.7499 17.2743 12.4985 17.2261 12.2561C17.1778 12.0136 17.0588 11.7909 16.884 11.6161C16.7092 11.4412 16.4864 11.3222 16.244 11.274C16.0015 11.2257 15.7502 11.2505 15.5217 11.3451C15.2933 11.4397 15.0981 11.5999 14.9608 11.8055C14.8234 12.011 14.7501 12.2527 14.7501 12.4999C14.7501 12.8315 14.8818 13.1494 15.1162 13.3838C15.3506 13.6182 15.6686 13.7499 16.0001 13.7499ZM27.7088 19.4249L26.1638 26.3749C26.1001 26.6639 25.9641 26.932 25.7685 27.1542C25.5729 27.3763 25.3242 27.5452 25.0457 27.6451C24.7671 27.745 24.4677 27.7726 24.1755 27.7254C23.8834 27.6781 23.608 27.5576 23.3751 27.3749L19.9013 24.7499H12.1026L8.6251 27.3749C8.39219 27.5584 8.11648 27.6798 7.82383 27.7275C7.53118 27.7753 7.23121 27.7479 6.95205 27.6479C6.67289 27.5479 6.42371 27.3787 6.2279 27.156C6.03209 26.9333 5.89607 26.6646 5.8326 26.3749L4.29135 19.4249C4.23384 19.1637 4.23671 18.8928 4.29975 18.6329C4.36278 18.3729 4.48432 18.1308 4.6551 17.9249L8.2801 13.5799C8.39223 12.0045 8.74988 10.4562 9.3401 8.99118C10.9301 5.00618 13.7801 2.50618 14.9313 1.61618C15.2382 1.37819 15.6155 1.24902 16.0038 1.24902C16.3922 1.24902 16.7695 1.37819 17.0763 1.61618C18.2276 2.50618 21.0763 5.00618 22.6676 8.99118C23.2578 10.4562 23.6155 12.0045 23.7276 13.5799L27.3526 17.9249C27.5221 18.1314 27.6423 18.3739 27.704 18.6338C27.7657 18.8937 27.7674 19.1643 27.7088 19.4249ZM12.2826 23.2499H19.7176C22.4588 18.4424 22.9826 13.8337 21.2713 9.54743C19.7776 5.79743 16.9776 3.43868 16.1551 2.79743C16.111 2.76256 16.0564 2.74358 16.0001 2.74358C15.9438 2.74358 15.8892 2.76256 15.8451 2.79743C15.0226 3.43368 12.2201 5.79743 10.7288 9.54743C9.0176 13.8337 9.54135 18.4424 12.2826 23.2499ZM10.8751 23.7999C9.3751 21.1137 8.5126 18.4749 8.2976 15.9012L5.8076 18.8849C5.78312 18.9142 5.76566 18.9487 5.75656 18.9857C5.74746 19.0228 5.74696 19.0614 5.7551 19.0987L7.30135 26.0537C7.31054 26.0951 7.33013 26.1335 7.35826 26.1653C7.3864 26.1971 7.42216 26.2211 7.46217 26.2353C7.50218 26.2494 7.54513 26.2531 7.58698 26.246C7.62882 26.239 7.66818 26.2214 7.70135 26.1949L7.7176 26.1812L10.8751 23.7999ZM26.1964 18.8849L23.7101 15.9012C23.4951 18.4749 22.6351 21.1137 21.1326 23.7999L24.2863 26.1749L24.3026 26.1887C24.3358 26.2152 24.3751 26.2327 24.417 26.2398C24.4588 26.2469 24.5018 26.2431 24.5418 26.229C24.5818 26.2149 24.6175 26.1908 24.6457 26.159C24.6738 26.1273 24.6934 26.0889 24.7026 26.0474L26.2501 19.0987C26.2576 19.061 26.2563 19.0222 26.2463 18.9851C26.2363 18.948 26.2179 18.9138 26.1926 18.8849H26.1964Z"/>
</svg>
